<svg xmlns="http://www.w3.org/2000/svg" viewBox="0 0 400 260">
  <title>A fruit fly at a trading desk with six screens, pressing BUY while the chart climbs</title>
  <defs>
    <g id="fly">
      <ellipse cx="-16" cy="-52" rx="11" ry="34" transform="rotate(-18 -16 -52)" fill="#fff" fill-opacity="0.35" stroke="#c98a4c" stroke-width="1.2"/>
      <path d="M-4 -30 L-14 0 M2 -30 L6 2" stroke="#b25d1a" stroke-width="3" stroke-linecap="round" fill="none"/>
      <ellipse cx="-2" cy="-22" rx="16" ry="24" fill="#d9731f"/>
      <path d="M-16 -26 Q-2 -22 13 -28 M-17 -16 Q-2 -12 14 -18 M-15 -6 Q-2 -3 12 -8" stroke="#a9541a" stroke-width="3" fill="none" stroke-linecap="round"/>
      <ellipse cx="4" cy="-56" rx="15" ry="14" fill="#e3872f"/>
      <circle cx="17" cy="-76" r="11" fill="#e3872f"/>
      <circle cx="22" cy="-78" r="6.5" fill="#b8321f"/>
      <path d="M22 -86 l6 -8" stroke="#b25d1a" stroke-width="2" stroke-linecap="round"/>
      <ellipse cx="-6" cy="-60" rx="9" ry="26" transform="rotate(-22 -6 -60)" fill="#fff" fill-opacity="0.45" stroke="#c98a4c" stroke-width="1.2"/>
    </g>
    <radialGradient id="glow" cx="0.5" cy="0.5" r="0.6">
      <stop offset="0" stop-color="#3fbf6a" stop-opacity="0.35"/>
      <stop offset="1" stop-color="#3fbf6a" stop-opacity="0"/>
    </radialGradient>
  </defs>
  <rect width="400" height="260" fill="#161b24"/>
  <!-- other screens on the wall -->
  <g opacity="0.45">
    <rect x="20" y="18" width="70" height="42" rx="3" fill="#0e1117"/>
    <path d="M26 50 L40 40 L52 46 L66 30 L84 34" stroke="#e0503a" stroke-width="2" fill="none"/>
    <rect x="310" y="18" width="70" height="42" rx="3" fill="#0e1117"/>
    <path d="M316 48 L330 44 L344 36 L360 40 L374 26" stroke="#3fbf6a" stroke-width="2" fill="none"/>
  </g>
  <ellipse cx="220" cy="100" rx="170" ry="110" fill="url(#glow)"/>
  <!-- the wall of six screens -->
  <rect x="118" y="26" width="70" height="56" rx="3" fill="#0c0d10"/>
  <rect x="121" y="29" width="64" height="50" rx="2" fill="#11151c"/>
  <rect x="121" y="34" width="64" height="12" fill="#de7a22"/>
  <rect x="125" y="52" width="50" height="3" fill="#e9e2d4" opacity="0.5"/>
  <rect x="125" y="60" width="41" height="3" fill="#e9e2d4" opacity="0.5"/>
  <rect x="125" y="68" width="32" height="3" fill="#e9e2d4" opacity="0.5"/>
  <rect x="192" y="22" width="70" height="56" rx="3" fill="#0c0d10"/>
  <rect x="195" y="25" width="64" height="50" rx="2" fill="#11151c"/>
  <rect x="200" y="58" width="4" height="8" fill="#e0503a"/>
  <rect x="208" y="54" width="4" height="8" fill="#3fbf6a"/>
  <rect x="216" y="52" width="4" height="6" fill="#3fbf6a"/>
  <rect x="224" y="48" width="4" height="8" fill="#e0503a"/>
  <rect x="232" y="44" width="4" height="9" fill="#3fbf6a"/>
  <rect x="240" y="39" width="4" height="9" fill="#3fbf6a"/>
  <rect x="248" y="34" width="4" height="8" fill="#3fbf6a"/>
  <text x="199" y="34" font-family="Inter, system-ui, sans-serif" font-size="6" font-weight="700" fill="#e9e2d4">$BNNA</text>
  <rect x="266" y="26" width="70" height="56" rx="3" fill="#0c0d10"/>
  <rect x="269" y="29" width="64" height="50" rx="2" fill="#11151c"/>
  <path d="M272 66 L288 60 L304 62 L328 42" stroke="#de7a22" stroke-width="2" fill="none"/>
  <path d="M272 66 L296 56 L328 52" stroke="#8fb5a0" stroke-width="1.5" fill="none"/>
  <path d="M272 66 L296 70 L328 66" stroke="#8a8f99" stroke-width="1.5" fill="none"/>
  <rect x="118" y="88" width="70" height="56" rx="3" fill="#0c0d10"/>
  <rect x="121" y="91" width="64" height="50" rx="2" fill="#11151c"/>
  <rect x="173" y="95" width="12" height="3.5" fill="#e0503a" opacity="0.6"/>
  <rect x="145" y="120" width="40" height="3" fill="#3fbf6a" opacity="0.6"/>
  <rect x="166" y="100" width="19" height="3.5" fill="#e0503a" opacity="0.6"/>
  <rect x="151" y="124" width="34" height="3" fill="#3fbf6a" opacity="0.6"/>
  <rect x="159" y="105" width="26" height="3.5" fill="#e0503a" opacity="0.6"/>
  <rect x="157" y="128" width="28" height="3" fill="#3fbf6a" opacity="0.6"/>
  <rect x="152" y="110" width="33" height="3.5" fill="#e0503a" opacity="0.6"/>
  <rect x="163" y="132" width="22" height="3" fill="#3fbf6a" opacity="0.6"/>
  <rect x="145" y="115" width="40" height="3.5" fill="#e0503a" opacity="0.6"/>
  <rect x="169" y="136" width="16" height="3" fill="#3fbf6a" opacity="0.6"/>
  <rect x="192" y="84" width="70" height="56" rx="3" fill="#0c0d10"/>
  <rect x="195" y="87" width="64" height="50" rx="2" fill="#11151c"/>
  <path d="M198 122 L210 114 L222 118 L236 104 L254 108" stroke="#e9e2d4" stroke-width="1.5" fill="none" opacity="0.8"/>
  <path d="M210 110 l3 5 h-6 z" fill="#3fbf6a"/>
  <path d="M236 108 l3 -5 h-6 z" fill="#e0503a"/>
  <rect x="266" y="88" width="70" height="56" rx="3" fill="#0c0d10"/>
  <rect x="269" y="91" width="64" height="50" rx="2" fill="#11151c"/>
  <rect x="274" y="98" width="22" height="3" fill="#3fbf6a"/>
  <rect x="304" y="98" width="10" height="3" fill="#e0503a"/>
  <rect x="274" y="105" width="19" height="3" fill="#3fbf6a"/>
  <rect x="304" y="105" width="14" height="3" fill="#e0503a"/>
  <rect x="274" y="112" width="16" height="3" fill="#3fbf6a"/>
  <rect x="304" y="112" width="18" height="3" fill="#e0503a"/>
  <rect x="274" y="119" width="13" height="3" fill="#3fbf6a"/>
  <rect x="304" y="119" width="22" height="3" fill="#e0503a"/>
  <rect x="274" y="132" width="54" height="3" fill="#e9e2d4" opacity="0.2"/>
  <rect x="274" y="132" width="20" height="3" fill="#e0503a"/>
  <rect x="224" y="144" width="6" height="28" fill="#1a1b1f"/>
  <!-- the desk -->
  <rect x="96" y="172" width="304" height="12" fill="#2a2d33"/>
  <rect x="110" y="184" width="10" height="76" fill="#1f2125"/>
  <rect x="380" y="184" width="10" height="76" fill="#1f2125"/>
  <!-- the buttons -->
  <ellipse cx="150" cy="170" rx="17" ry="5" fill="#111"/>
  <ellipse cx="150" cy="166" rx="13" ry="5" fill="#2fa85a"/>
  <ellipse cx="192" cy="170" rx="17" ry="5" fill="#111"/>
  <ellipse cx="192" cy="164" rx="13" ry="5" fill="#d6412c"/>
  <text x="150" y="196" font-family="Inter, system-ui, sans-serif" font-size="9" font-weight="700" fill="#e9e2d4" text-anchor="middle">BUY</text>
  <text x="192" y="196" font-family="Inter, system-ui, sans-serif" font-size="9" font-weight="700" fill="#e9e2d4" text-anchor="middle">SELL</text>
  <!-- the stool -->
  <rect x="56" y="196" width="7" height="60" fill="#c9954b"/>
  <ellipse cx="60" cy="256" rx="24" ry="4" fill="#c9954b"/>
  <rect x="26" y="186" width="68" height="13" rx="6" fill="#7a1f1c"/>
  <!-- the fly, foreleg on BUY -->
  <use href="#fly" x="60" y="188"/>
  <path d="M70 140 Q110 132 150 160" stroke="#b25d1a" stroke-width="3" fill="none" stroke-linecap="round"/>
  <path d="M68 148 Q100 160 124 170" stroke="#b25d1a" stroke-width="3" fill="none" stroke-linecap="round"/>
</svg>
